<svg xmlns="http://www.w3.org/2000/svg" width="85.396" height="36.989" viewBox="0 0 85.396 36.989">
  <defs>
    <style>
      .cls-1 {
        fill: #00e6ff;
      }

      .cls-2 {
        fill: #fff;
        fill-rule: evenodd;
      }
    </style>
  </defs>
  <g id="iconfinder_003_-_Glasses_3817204" transform="translate(0 0)">
    <g id="_003---Glasses" data-name="003---Glasses" transform="translate(0 -0.001)">
      <circle id="Oval" class="cls-1" cx="17.079" cy="17.079" r="17.079" transform="translate(5.693 1.424)"/>
      <circle id="Oval-2" data-name="Oval" class="cls-1" cx="17.079" cy="17.079" r="17.079" transform="translate(45.544 1.424)"/>
      <path id="Path" class="cls-2" d="M8.679,16.386a1.408,1.408,0,0,1-.362-.046A1.423,1.423,0,0,1,7.3,14.607,12.809,12.809,0,0,1,19.7,5a1.423,1.423,0,0,1,0,2.847,9.963,9.963,0,0,0-9.648,7.472A1.423,1.423,0,0,1,8.679,16.386Z" transform="translate(3.069 0.694)"/>
      <path id="Path-2" data-name="Path" class="cls-2" d="M9.15,19.278a1.423,1.423,0,0,1-1.318-.885,12.831,12.831,0,0,1-.531-1.6,1.423,1.423,0,1,1,2.755-.712,9.851,9.851,0,0,0,.411,1.243,1.423,1.423,0,0,1-.78,1.85A1.408,1.408,0,0,1,9.15,19.278Z" transform="translate(3.068 4.918)"/>
      <path id="Path-3" data-name="Path" class="cls-2" d="M36.679,16.386a1.408,1.408,0,0,1-.362-.046A1.423,1.423,0,0,1,35.3,14.607,12.809,12.809,0,0,1,47.7,5a1.423,1.423,0,0,1,0,2.847,9.963,9.963,0,0,0-9.648,7.472A1.423,1.423,0,0,1,36.679,16.386Z" transform="translate(14.92 0.694)"/>
      <path id="Path-4" data-name="Path" class="cls-2" d="M37.145,19.261a1.423,1.423,0,0,1-1.318-.885,12.811,12.811,0,0,1-.531-1.6,1.423,1.423,0,0,1,2.755-.712,9.854,9.854,0,0,0,.411,1.243,1.423,1.423,0,0,1-.78,1.85A1.407,1.407,0,0,1,37.145,19.261Z" transform="translate(14.923 4.936)"/>
      <path id="Shape" d="M83.972,18.079H81.053a18.474,18.474,0,0,0-34-8.531A6.147,6.147,0,0,0,42.7,8.117a6.147,6.147,0,0,0-4.354,1.432,18.474,18.474,0,0,0-34,8.531H1.423a1.423,1.423,0,1,0,0,2.847H4.342A18.494,18.494,0,0,0,41.275,19.5c0-.387-.034-.766-.058-1.147a1.454,1.454,0,0,0,.058-.259,1.423,1.423,0,1,1,2.847-.017,1.3,1.3,0,0,0,.058.285c-.024.377-.058.753-.058,1.139a18.494,18.494,0,0,0,36.932,1.423h2.919a1.423,1.423,0,1,0,0-2.847Zm-61.2,17.079A15.656,15.656,0,1,1,38.428,19.5,15.656,15.656,0,0,1,22.772,35.158ZM42.7,13.81a4.331,4.331,0,0,0-2.168.541,18.707,18.707,0,0,0-.679-1.947c.026-.285.285-1.44,2.847-1.44,2.62,0,2.831,1.22,2.847,1.423a18.7,18.7,0,0,0-.68,1.957A4.33,4.33,0,0,0,42.7,13.81ZM62.623,35.158A15.656,15.656,0,1,1,78.279,19.5,15.656,15.656,0,0,1,62.623,35.158Z" transform="translate(0 -0.999)"/>
    </g>
  </g>
</svg>
