<svg id="iconfinder_004_-_Cassette_3817205" xmlns="http://www.w3.org/2000/svg" width="60" height="42" viewBox="0 0 60 42">
  <defs>
    <style>
      .cls-1 {
        fill: #f2cc36;
      }

      .cls-2, .cls-5 {
        fill: #fff1b7;
      }

      .cls-3 {
        fill: #f9d349;
      }

      .cls-4 {
        fill: #dbb52f;
      }

      .cls-4, .cls-5, .cls-6 {
        fill-rule: evenodd;
      }

      .cls-6 {
        fill: #fff;
      }
    </style>
  </defs>
  <g id="_004---Cassette" data-name="004---Cassette">
    <rect id="Rectangle" class="cls-1" width="58" height="40" rx="2" transform="translate(1 1)"/>
    <rect id="Rectangle-2" data-name="Rectangle" class="cls-2" width="20" height="42" rx="1" transform="translate(51 11) rotate(90)"/>
    <rect id="Rectangle-3" data-name="Rectangle" class="cls-3" width="10" height="34" rx="1" transform="translate(47 16) rotate(90)"/>
    <path id="Path" class="cls-4" d="M27,21a4.619,4.619,0,0,1-.1.99v.02a5,5,0,0,1-9.8,0v-.02A4.619,4.619,0,0,1,17,21a5,5,0,0,1,10,0Z"/>
    <path id="Path-2" data-name="Path" class="cls-4" d="M43,21a4.619,4.619,0,0,1-.1.99v.02a5,5,0,0,1-9.8,0v-.02A4.619,4.619,0,0,1,33,21a5,5,0,0,1,10,0Z"/>
    <path id="Path-3" data-name="Path" class="cls-5" d="M46,41l-1.544-4.632A2,2,0,0,0,42.558,35H17.442a2,2,0,0,0-1.9,1.368L14,41Z"/>
    <path id="Path-4" data-name="Path" class="cls-6" d="M21,22a1,1,0,0,1-1-1,2,2,0,0,1,2-2,1,1,0,0,1,0,2A1,1,0,0,1,21,22Z"/>
    <path id="Path-5" data-name="Path" class="cls-6" d="M37,22a1,1,0,0,1-1-1,2,2,0,0,1,2-2,1,1,0,0,1,0,2A1,1,0,0,1,37,22Z"/>
    <path id="Path-6" data-name="Path" class="cls-6" d="M5,13a1,1,0,0,1-1-1V10a1,1,0,0,1,2,0v2A1,1,0,0,1,5,13Z"/>
    <path id="Path-7" data-name="Path" class="cls-6" d="M5,37a1,1,0,0,1-1-1V17a1,1,0,0,1,2,0V36A1,1,0,0,1,5,37Z"/>
    <path id="Shape" d="M57,0H3A3,3,0,0,0,0,3V39a3,3,0,0,0,3,3H57a3,3,0,0,0,3-3V3A3,3,0,0,0,57,0ZM15.387,40l1.105-3.316A1,1,0,0,1,17.441,36H42.559a1,1,0,0,1,.949.684L44.613,40ZM58,39a1,1,0,0,1-1,1H46.72L45.4,36.051A3,3,0,0,0,42.559,34H17.441A3,3,0,0,0,14.6,36.051L13.28,40H3a1,1,0,0,1-1-1V3A1,1,0,0,1,3,2H57a1,1,0,0,1,1,1Z"/>
    <path id="Shape-2" data-name="Shape" d="M50,10H10a2,2,0,0,0-2,2V30a2,2,0,0,0,2,2H50a2,2,0,0,0,2-2V12A2,2,0,0,0,50,10Zm0,20H10V12H50Z"/>
    <path id="Shape-3" data-name="Shape" d="M14,27H46a2,2,0,0,0,2-2V17a2,2,0,0,0-2-2H14a2,2,0,0,0-2,2v8A2,2,0,0,0,14,27Zm8-10a4,4,0,1,1-4,4A4,4,0,0,1,22,17Zm4.46,0h7.08a5.965,5.965,0,0,0,0,8H26.458a5.963,5.963,0,0,0,0-8ZM42,21a4,4,0,1,1-4-4A4,4,0,0,1,42,21Zm4,4H42.459a5.963,5.963,0,0,0,0-8H46ZM14,17h3.54a5.965,5.965,0,0,0,0,8H14Z"/>
  </g>
</svg>
