<svg id="iconfinder_012_-_Record_3817213" xmlns="http://www.w3.org/2000/svg" width="60" height="60" viewBox="0 0 60 60">
  <defs>
    <style>
      .cls-1 {
        fill: #092366;
      }

      .cls-2 {
        fill: #c8cede;
      }

      .cls-3 {
        fill: #a8aec2;
      }

      .cls-4 {
        fill: #fff;
        fill-rule: evenodd;
      }
    </style>
  </defs>
  <g id="_012---Record" data-name="012---Record">
    <circle id="Oval" class="cls-1" cx="29" cy="29" r="29" transform="translate(1 1)"/>
    <circle id="Oval-2" data-name="Oval" class="cls-2" cx="10" cy="10" r="10" transform="translate(20 20)"/>
    <circle id="Oval-3" data-name="Oval" class="cls-3" cx="3" cy="3" r="3" transform="translate(27 27)"/>
    <path id="Path" class="cls-4" d="M51,31a1,1,0,0,1-1-1,19.992,19.992,0,0,0-.572-4.762,1,1,0,1,1,1.941-.476A21.95,21.95,0,0,1,52,30,1,1,0,0,1,51,31Z"/>
    <path id="Path-2" data-name="Path" class="cls-4" d="M48.973,22a1,1,0,0,1-.9-.57A20.116,20.116,0,0,0,30,10a1,1,0,0,1,0-2A22.13,22.13,0,0,1,49.875,20.57a1,1,0,0,1-.9,1.43Z"/>
    <path id="Path-3" data-name="Path" class="cls-4" d="M22.992,55a1.009,1.009,0,0,1-.28-.04A25.966,25.966,0,0,1,4.186,33.119a1,1,0,1,1,1.986-.238,23.964,23.964,0,0,0,17.1,20.159,1,1,0,0,1-.28,1.96Z"/>
    <path id="Path-4" data-name="Path" class="cls-4" d="M30,56a26.074,26.074,0,0,1-3.119-.186,1,1,0,0,1,.238-1.986,24.249,24.249,0,0,0,5.762,0,1,1,0,0,1,.238,1.986A26.074,26.074,0,0,1,30,56Z"/>
    <path id="Path-5" data-name="Path" class="cls-4" d="M55,31a1,1,0,0,1-1-1A23.877,23.877,0,0,0,40.559,8.45a1,1,0,0,1,.882-1.795A25.865,25.865,0,0,1,56,30a1,1,0,0,1-1,1Z"/>
    <path id="Path-6" data-name="Path" class="cls-4" d="M34,6.319a1.086,1.086,0,0,1-.16-.012A24.277,24.277,0,0,0,30,6a1,1,0,0,1,0-2,26.136,26.136,0,0,1,4.159.332A1,1,0,0,1,34,6.319Z"/>
    <path id="Shape" d="M30,0A30,30,0,1,0,60,30,30,30,0,0,0,30,0Zm0,58A28,28,0,1,1,58,30,28,28,0,0,1,30,58Z"/>
    <path id="Shape-2" data-name="Shape" d="M30,19A11,11,0,1,0,41,30,11,11,0,0,0,30,19Zm0,20a9,9,0,1,1,9-9A9,9,0,0,1,30,39Z"/>
    <path id="Shape-3" data-name="Shape" d="M30,26a4,4,0,1,0,4,4A4,4,0,0,0,30,26Zm0,6a2,2,0,1,1,2-2A2,2,0,0,1,30,32Z"/>
  </g>
</svg>
