<svg xmlns="http://www.w3.org/2000/svg" width="137.429" height="74" viewBox="0 0 137.429 74">
  <defs>
    <style>
      .cls-1 {
        fill-rule: evenodd;
      }
    </style>
  </defs>
  <g id="iconfinder_icon-22-eye_314277" transform="translate(-3 -9)">
    <g id="icon-22-eye" transform="translate(3 9)">
      <path id="eye" class="cls-1" d="M71.714,9C24.143,9,3,46,3,46S24.143,83,71.714,83s68.714-37,68.714-37S119.286,9,71.714,9Zm0,5.286C29.429,14.286,9.343,46,9.343,46S29.429,77.714,71.714,77.714,134.086,46,134.086,46,114,14.286,71.714,14.286Zm0,52.857A21.143,21.143,0,1,0,50.571,46,21.143,21.143,0,0,0,71.714,67.143Zm0-5.286A15.857,15.857,0,1,0,55.857,46,15.857,15.857,0,0,0,71.714,61.857Zm0-10.571A5.286,5.286,0,1,0,66.429,46a5.286,5.286,0,0,0,5.286,5.286Z" transform="translate(-3 -9)"/>
    </g>
  </g>
</svg>
