<svg xmlns="http://www.w3.org/2000/svg" width="59.686" height="57" viewBox="0 0 59.686 57">
  <defs>
    <style>
      .cls-1 {
        fill: #092366;
      }

      .cls-1, .cls-2, .cls-3 {
        fill-rule: evenodd;
      }

      .cls-2 {
        fill: #0b2c80;
      }

      .cls-3 {
        fill: #fff;
      }
    </style>
  </defs>
  <g id="iconfinder_001_-_Headphones_3817202" transform="translate(-0.161)">
    <g id="_001---Headphones" data-name="001---Headphones">
      <path id="Path" class="cls-1" d="M45.62,14.04l-.366.314a3.992,3.992,0,0,1-4.951.189A17.4,17.4,0,0,0,30,11a17.4,17.4,0,0,0-10.3,3.543,3.992,3.992,0,0,1-4.951-.189l-.366-.314C18.81,9.52,24.26,6,30,6S41.18,9.52,45.62,14.04Z"/>
      <path id="Path-2" data-name="Path" class="cls-2" d="M20.93,51.25A3.989,3.989,0,0,1,17,56H13.01A8.006,8.006,0,0,1,5,48V38a8.006,8.006,0,0,1,8.01-8H17a3.989,3.989,0,0,1,3.93,4.75,46.208,46.208,0,0,0-.9,8.25A46.208,46.208,0,0,0,20.93,51.25Z"/>
      <path id="Path-3" data-name="Path" class="cls-2" d="M55,38V48a8.006,8.006,0,0,1-8.01,8H43a3.989,3.989,0,0,1-3.93-4.75,46.208,46.208,0,0,0,.9-8.25,46.208,46.208,0,0,0-.9-8.25A3.989,3.989,0,0,1,43,30h3.99A8.006,8.006,0,0,1,55,38Z"/>
      <path id="Path-4" data-name="Path" class="cls-2" d="M56.88,24.02a3.05,3.05,0,0,1-.93.69,2.724,2.724,0,0,1-.86.25,2.989,2.989,0,0,1-3.14-1.68,33.669,33.669,0,0,0-6.33-9.24C41.18,9.52,35.74,7,30,7S18.81,9.52,14.38,14.04a33.67,33.67,0,0,0-6.33,9.24A2.99,2.99,0,0,1,5.33,25a2.28,2.28,0,0,1-.45-.04,2.828,2.828,0,0,1-.83-.25,2.88,2.88,0,0,1-.95-.72,2.983,2.983,0,0,1-.47-3.27C8.47,8.37,18.7,1,30,1S51.53,8.37,57.38,20.72A3.014,3.014,0,0,1,56.88,24.02Z"/>
      <path id="Path-5" data-name="Path" class="cls-3" d="M9,47a1,1,0,0,1-1-1V39a1,1,0,0,1,2,0v7A1,1,0,0,1,9,47Z"/>
      <path id="Path-6" data-name="Path" class="cls-3" d="M10.361,52a1,1,0,0,1-.659-.249A4.971,4.971,0,0,1,8.674,50.5a1,1,0,1,1,1.729-1,3.009,3.009,0,0,0,.619.751A1,1,0,0,1,10.361,52Z"/>
      <path id="Path-7" data-name="Path" class="cls-3" d="M12,52.871a1,1,0,0,1-.252-.032A5.021,5.021,0,0,1,9.7,51.75a1,1,0,1,1,1.322-1.5,3.011,3.011,0,0,0,1.229.653A1,1,0,0,1,12,52.871Z"/>
      <path id="Path-8" data-name="Path" class="cls-3" d="M43.842,47H43.76a1,1,0,0,1-.916-1.078c.084-1.022.126-2,.126-2.919a40.15,40.15,0,0,0-.328-4.877,1,1,0,0,1,1.984-.246A41.963,41.963,0,0,1,44.97,43c0,.97-.045,2.007-.132,3.081A1,1,0,0,1,43.842,47Z"/>
      <path id="Path-9" data-name="Path" class="cls-3" d="M43,53a1.016,1.016,0,0,1-.189-.018,1,1,0,0,1-.794-1.169c.063-.334.124-.662.181-.988a1,1,0,0,1,1.969.35c-.06.334-.12.672-.186,1.013A1,1,0,0,1,43,53Z"/>
      <path id="Shape" d="M1.445,41.441A4.832,4.832,0,0,0,4,42.9V48a9.017,9.017,0,0,0,9.014,9H17a5,5,0,0,0,4.916-5.94A43.621,43.621,0,0,1,21.031,43a43.621,43.621,0,0,1,.885-8.06A5,5,0,0,0,17,29H13.014A9.017,9.017,0,0,0,4,38v2.809a2.793,2.793,0,0,1-1.083-.722A2.847,2.847,0,0,1,2.171,37.9,45.812,45.812,0,0,1,4.787,25.94,3.944,3.944,0,0,0,5.33,26a4.011,4.011,0,0,0,3.624-2.292A32.976,32.976,0,0,1,14.5,15.4a4.96,4.96,0,0,0,5.787-.052A16.3,16.3,0,0,1,30,12a16.3,16.3,0,0,1,9.714,3.351A4.921,4.921,0,0,0,45.5,15.4a32.987,32.987,0,0,1,5.546,8.306,3.755,3.755,0,0,0,4.131,2.236,52.561,52.561,0,0,1,2.661,12.967,2.853,2.853,0,0,1-.755,2.184A2.776,2.776,0,0,1,56,41.811V38a9.017,9.017,0,0,0-9.014-9H43a5,5,0,0,0-4.916,5.94A43.594,43.594,0,0,1,38.97,43a43.594,43.594,0,0,1-.886,8.06A5,5,0,0,0,43,57h3.986A9.017,9.017,0,0,0,56,48V43.9a4.77,4.77,0,0,0,2.552-1.446,4.9,4.9,0,0,0,1.28-3.7A53.77,53.77,0,0,0,57.04,25.212a4.012,4.012,0,0,0,1.243-4.92C52.266,7.585,41.691,0,30,0S7.735,7.586,1.727,20.29a4,4,0,0,0,1.2,4.9A47.825,47.825,0,0,0,.178,37.732,4.889,4.889,0,0,0,1.445,41.441ZM6,38a7.015,7.015,0,0,1,7.014-7H17a3,3,0,0,1,2.952,3.563A45.572,45.572,0,0,0,19.031,43a45.572,45.572,0,0,0,.921,8.437A3,3,0,0,1,17,55H13.014A7.015,7.015,0,0,1,6,48ZM54,48a7.015,7.015,0,0,1-7.014,7H43a3,3,0,0,1-2.951-3.563A45.632,45.632,0,0,0,40.97,43a45.632,45.632,0,0,0-.921-8.437A3,3,0,0,1,43,31h3.986A7.015,7.015,0,0,1,54,38ZM40.892,13.735A18.507,18.507,0,0,0,30,10a18.507,18.507,0,0,0-10.892,3.735,2.984,2.984,0,0,1-3.179.222c.146-.136.289-.278.437-.41.244-.218.49-.432.738-.638.306-.254.616-.494.928-.728.254-.191.508-.38.767-.558.318-.219.641-.423.966-.623.261-.16.522-.323.787-.471.332-.186.67-.353,1.008-.519.265-.13.529-.265.8-.382.35-.154.706-.284,1.062-.416.264-.1.525-.2.791-.29.376-.121.758-.216,1.14-.314.252-.064.5-.14.755-.194.427-.091.858-.15,1.289-.21.215-.03.427-.076.643-.1a18.183,18.183,0,0,1,3.921,0c.216.022.428.068.643.1.43.06.861.12,1.286.21.253.054.5.13.754.194.382.1.764.193,1.142.315.263.085.522.19.783.287.358.132.717.264,1.07.419.266.116.527.25.789.378.342.168.683.336,1.018.524.263.146.521.307.78.467.327.2.654.406.975.628.256.176.509.364.762.553.314.235.626.477.933.732.249.2.494.419.738.637.148.132.292.273.439.41A2.984,2.984,0,0,1,40.892,13.735ZM3.534,21.147C9.2,9.158,19.1,2,30,2S50.8,9.158,56.475,21.145a2.009,2.009,0,0,1-.954,2.661c-.014.007-.03.01-.045.017h-.012a1.993,1.993,0,0,1-2.61-.975,34.606,34.606,0,0,0-6.521-9.513C41.616,8.538,35.969,6,30,6a20.8,20.8,0,0,0-3.325.266A21.835,21.835,0,0,0,18.336,9.51c-.206.131-.408.273-.611.412-.121.083-.243.16-.362.245a27.37,27.37,0,0,0-3.7,3.173,34.622,34.622,0,0,0-6.52,9.514,2.018,2.018,0,0,1-2.606.972c-.006,0-.009-.008-.015-.01a.088.088,0,0,0-.023,0l-.02-.007A2,2,0,0,1,3.534,21.147Z"/>
    </g>
  </g>
</svg>
