<svg xmlns="http://www.w3.org/2000/svg" width="45" height="60.003" viewBox="0 0 45 60.003">
  <defs>
    <style>
      .cls-1 {
        fill: #f9d349;
      }

      .cls-1, .cls-2, .cls-4 {
        fill-rule: evenodd;
      }

      .cls-2 {
        fill: #76523a;
      }

      .cls-3 {
        fill: #ebc741;
      }

      .cls-4 {
        fill: #fff;
      }
    </style>
  </defs>
  <g id="iconfinder_007_-_Coffee_Cup_3817208" transform="translate(0 0.003)">
    <g id="_007---Coffee-Cup" data-name="007---Coffee-Cup" transform="translate(0 -1)">
      <path id="Path" class="cls-1" d="M37,9H7V3.085a.991.991,0,0,1,1.053-.993,231.78,231.78,0,0,0,27.894,0A.991.991,0,0,1,37,3.085Z"/>
      <path id="Path-2" data-name="Path" class="cls-2" d="M36.2,48,35.18,58.2A2,2,0,0,1,33.19,60H10.81a2,2,0,0,1-1.99-1.8L7.8,48,5.3,23,4.1,11,4,8l36,.222L39.9,11,38.7,23Z"/>
      <path id="Path-3" data-name="Path" class="cls-1" d="M36.113,48H7.887a1,1,0,0,1-.993-.881l-2.76-23A1,1,0,0,1,5.127,23H38.873a1,1,0,0,1,.993,1.119l-2.76,23A1,1,0,0,1,36.113,48Z"/>
      <rect id="Rectangle" class="cls-3" width="43" height="4" rx="1" transform="translate(1 7)"/>
      <path id="Path-4" data-name="Path" class="cls-4" d="M8.919,20a1,1,0,0,1-.994-.9l-.4-4a1,1,0,0,1,1.991-.2l.4,4a1,1,0,0,1-.9,1.1A.9.9,0,0,1,8.919,20Z"/>
      <path id="Path-5" data-name="Path" class="cls-4" d="M12.619,57a1,1,0,0,1-.994-.9l-.4-4a1,1,0,0,1,1.99-.2l.4,4A1,1,0,0,1,12.72,57Z"/>
      <path id="Path-6" data-name="Path" class="cls-4" d="M8.748,30a1,1,0,0,1-.992-.881l-.24-2A1,1,0,1,1,9.5,26.881l.24,2a1,1,0,0,1-.874,1.112A.982.982,0,0,1,8.748,30Z"/>
      <path id="Path-7" data-name="Path" class="cls-4" d="M10.428,44a1,1,0,0,1-.992-.881l-1.2-10a1,1,0,1,1,1.987-.238l1.2,10a1,1,0,0,1-.874,1.112A.979.979,0,0,1,10.428,44Z"/>
      <path id="Shape" d="M43,6H38V2a1,1,0,0,0-.316-.73.982.982,0,0,0-.75-.27l-.367.025a219.908,219.908,0,0,1-29.134,0L7.066,1a.982.982,0,0,0-.75.268A1,1,0,0,0,6,2V6H2A2,2,0,0,0,0,8v2a2,2,0,0,0,2,2H3.2L4.223,22.228a1.963,1.963,0,0,0-1.076,2.01l2.759,23a2,2,0,0,0,.965,1.479L8.005,60.1a1,1,0,0,0,1,.9H35a1,1,0,0,0,1-.9l1.139-11.383a2,2,0,0,0,.965-1.479l2.759-23a1.964,1.964,0,0,0-1.076-2.012L40.805,12H43a2,2,0,0,0,2-2V8A2,2,0,0,0,43,6ZM8,3.068a221.69,221.69,0,0,0,28,0V6H8ZM34.1,59H9.9l-1-10H35.1Zm2.019-12H7.888L5.127,24H38.872ZM37.8,22H6.2l-1-10H38.8Zm2.1-12H2V8H43v2Z"/>
    </g>
  </g>
</svg>
