<svg id="iconfinder_005_-_Hat_3817206_1_" data-name="iconfinder_005_-_Hat_3817206 (1)" xmlns="http://www.w3.org/2000/svg" width="60" height="58" viewBox="0 0 60 58">
  <defs>
    <style>
      .cls-1 {
        fill: #634531;
      }

      .cls-1, .cls-2, .cls-3, .cls-4 {
        fill-rule: evenodd;
      }

      .cls-2 {
        fill: #76523a;
      }

      .cls-3 {
        fill: #f9d349;
      }

      .cls-4 {
        fill: #fff;
      }
    </style>
  </defs>
  <g id="_005---Hat" data-name="005---Hat">
    <path id="Path" class="cls-1" d="M50.53,28.84C55.76,31.83,59,35.95,59,40.5,59,49.61,46.02,57,30,57S1,49.61,1,40.5c0-4.55,3.24-8.67,8.47-11.66Z"/>
    <path id="Path-2" data-name="Path" class="cls-2" d="M51.853,35.283a1,1,0,0,1-.525,1.093C49.37,37.371,42.971,40,30,40S10.63,37.371,8.672,36.376a1,1,0,0,1-.525-1.093L9.47,28.84,13.2,10.72A12.013,12.013,0,0,1,24.32,1.15C26.09,1.06,28.02,1,30,1s3.91.06,5.68.15A12.013,12.013,0,0,1,46.8,10.72l3.73,18.12Z"/>
    <path id="Path-3" data-name="Path" class="cls-3" d="M51.852,35.283a1,1,0,0,1-.525,1.093C49.368,37.372,42.97,40,30,40S10.632,37.372,8.673,36.376a1,1,0,0,1-.525-1.093L8.74,32.41C10.77,33.43,17.17,36,30,36s19.23-2.57,21.26-3.59Z"/>
    <path id="Path-4" data-name="Path" class="cls-4" d="M5.588,44a1,1,0,0,1-.908-.58A6.933,6.933,0,0,1,4,40.5a6.632,6.632,0,0,1,.261-1.819,1,1,0,1,1,1.924.55A4.59,4.59,0,0,0,6,40.5a4.956,4.956,0,0,0,.494,2.08,1,1,0,0,1-.487,1.327A.979.979,0,0,1,5.588,44Z"/>
    <path id="Path-5" data-name="Path" class="cls-4" d="M22,53.314a.962.962,0,0,1-.176-.015C15.73,52.214,10.578,49.945,7.318,46.91a1,1,0,1,1,1.364-1.463c2.937,2.735,7.856,4.879,13.493,5.883A1,1,0,0,1,22,53.314Z"/>
    <path id="Path-6" data-name="Path" class="cls-4" d="M14.762,24a.921.921,0,0,1-.2-.021,1,1,0,0,1-.779-1.181l2.363-11.474a8.958,8.958,0,0,1,.536-1.717,1,1,0,1,1,1.84.786,6.842,6.842,0,0,0-.417,1.334L15.74,23.2A1,1,0,0,1,14.762,24Z"/>
    <path id="Path-7" data-name="Path" class="cls-4" d="M13.526,30a.953.953,0,0,1-.2-.021,1,1,0,0,1-.777-1.181l.412-2a1,1,0,0,1,1.959.4l-.412,2A1,1,0,0,1,13.526,30Z"/>
    <path id="Shape" d="M51.418,28.207l-3.639-17.69A13.028,13.028,0,0,0,35.73.151C33.755.051,31.826,0,30,0s-3.755.051-5.732.151A13.028,13.028,0,0,0,12.221,10.518L8.582,28.207C3.048,31.49,0,35.84,0,40.5,0,50.149,13.458,58,30,58s30-7.851,30-17.5C60,35.84,56.952,31.49,51.418,28.207ZM30,39c-12.95,0-19.251-2.69-20.873-3.516l.339-1.644C12.44,35.082,18.843,37,30,37s17.56-1.918,20.534-3.16l.339,1.644C49.251,36.31,42.95,39,30,39ZM14.18,10.923A11.025,11.025,0,0,1,24.371,2.148C26.313,2.05,28.207,2,30,2s3.687.05,5.627.148A11.025,11.025,0,0,1,45.82,10.921l4.3,20.917C47.53,32.991,41.383,35,30,35S12.47,32.991,9.877,31.838ZM30,56C14.561,56,2,49.047,2,40.5c0-3.481,2.119-6.82,6.02-9.56l-.852,4.142A2.006,2.006,0,0,0,8.22,37.268C10.427,38.39,16.968,41,30,41s19.573-2.61,21.78-3.732a2.006,2.006,0,0,0,1.091-1.857,1.88,1.88,0,0,0-.039-.331l-.852-4.14C55.88,33.68,58,37.019,58,40.5,58,49.047,45.439,56,30,56Z"/>
  </g>
</svg>
