<svg id="iconfinder_008_-_Book_3817209" xmlns="http://www.w3.org/2000/svg" width="44" height="60" viewBox="0 0 44 60">
  <defs>
    <style>
      .cls-1 {
        fill: #760000;
      }

      .cls-1, .cls-2, .cls-3, .cls-5 {
        fill-rule: evenodd;
      }

      .cls-2 {
        fill: #76523a;
      }

      .cls-3 {
        fill: #634531;
      }

      .cls-4 {
        fill: #f9d349;
      }

      .cls-5 {
        fill: #fff;
      }
    </style>
  </defs>
  <g id="_008---Book" data-name="008---Book">
    <path id="Path" class="cls-1" d="M20.342,58.973l-2.184-.752a.489.489,0,0,0-.316,0l-2.184.752a.5.5,0,0,1-.658-.49V51h6v7.483a.5.5,0,0,1-.658.49Z"/>
    <path id="Path-2" data-name="Path" class="cls-2" d="M2,1H37a6,6,0,0,1,6,6V47a6,6,0,0,1-6,6H2a1,1,0,0,1-1-1V2A1,1,0,0,1,2,1Z"/>
    <path id="Path-3" data-name="Path" class="cls-3" d="M9,1V53H2a1,1,0,0,1-1-1V2A1,1,0,0,1,2,1Z"/>
    <rect id="Rectangle" class="cls-4" width="34" height="12" transform="translate(9 31)"/>
    <path id="Path-4" data-name="Path" class="cls-5" d="M39,17a1,1,0,0,1-1-1V14a1,1,0,0,1,2,0v2A1,1,0,0,1,39,17Z"/>
    <path id="Path-5" data-name="Path" class="cls-5" d="M39,11a1,1,0,0,1-1-1V7a1,1,0,0,0-1-1H33a1,1,0,0,1,0-2h4a3,3,0,0,1,3,3v3A1,1,0,0,1,39,11Z"/>
    <path id="Path-6" data-name="Path" class="cls-5" d="M5,48a1,1,0,0,1-1-1V35a1,1,0,0,1,2,0V47A1,1,0,0,1,5,48Z"/>
    <path id="Path-7" data-name="Path" class="cls-5" d="M5,32a1,1,0,0,1-1-1V29a1,1,0,0,1,2,0v2A1,1,0,0,1,5,32Z"/>
    <path id="Path-8" data-name="Path" class="cls-5" d="M32,36H16a1,1,0,0,1,0-2H32a1,1,0,0,1,0,2Z"/>
    <path id="Path-9" data-name="Path" class="cls-5" d="M25,40H16a1,1,0,0,1,0-2h9a1,1,0,0,1,0,2Z"/>
    <path id="Path-10" data-name="Path" class="cls-5" d="M30,40H29a1,1,0,0,1,0-2h1a1,1,0,0,1,0,2Z"/>
    <path id="Shape" d="M37,0H2A2,2,0,0,0,0,2V52a2,2,0,0,0,2,2H14v4.483a1.526,1.526,0,0,0,.636,1.241A1.5,1.5,0,0,0,15.5,60a1.454,1.454,0,0,0,.482-.081L18,59.224l2.016.694a1.49,1.49,0,0,0,1.348-.194A1.526,1.526,0,0,0,22,58.483V54H37a7.009,7.009,0,0,0,7-7V7A7.008,7.008,0,0,0,37,0Zm5,42H10V32H42ZM2,2H8V52H2ZM20,57.8l-1.518-.523a1.5,1.5,0,0,0-.965,0L16,57.8V54h4ZM37,52H10V44H42v3A5.006,5.006,0,0,1,37,52Zm5-22H10V2H37a5.006,5.006,0,0,1,5,5Z"/>
  </g>
</svg>
